<svg width="162" height="151" viewBox="0 0 162 151" fill="none" xmlns="http://www.w3.org/2000/svg">
<path d="M82.6918 2.5384C83.3061 2.28984 84.2043 2.69941 84.8678 2.10889C85.7997 1.26924 86.9887 1.48502 88.0932 1.23138C112.523 -4.33118 136.451 9.47556 145.627 32.0675L156.656 59.2267C162.527 73.6808 163.049 89.5556 156.094 103.619C151.109 113.705 143.034 121.991 132.484 126.3L82.1201 146.859C70.4668 151.614 57.9723 152.307 46.1492 148.026C32.185 142.971 21.222 132.082 15.6785 118.221L3.16717 86.9361C-5.37971 65.5653 3.88062 37.0367 24.8161 26.7627C40.622 19.0033 57.5868 13.9782 73.2902 6.34222L82.6867 2.54044L82.6918 2.5384ZM76.4591 126.089C81.8709 123.214 87.051 120.433 92.3131 117.174C83.9871 114.54 79.927 106.837 82.0472 99.245C84.1565 91.6983 92.1642 87.3751 99.6418 89.4326C107.119 91.49 111.58 99.1835 109.527 107.375C114.694 104.91 119.106 102.375 123.758 99.7373C137.1 92.1728 141.466 75.4034 132.966 62.4755C133.57 61.9265 134.265 61.6454 135.005 61.2289C142.527 56.9794 144.689 47.4787 139.711 40.5042C135.026 33.9499 125.447 32.4789 119.203 38.0034C113.007 24.6294 97.9539 18.68 84.682 24.8813L68.3187 34.0725C69.5678 35.0018 70.8617 35.2162 72.0788 35.9359C78.7322 39.8669 81.1789 47.9418 77.8101 54.7508C74.5084 61.4213 66.5073 64.5297 59.5195 61.5538C52.5882 58.6018 49.1317 51.2751 51.5628 43.4812L36.3125 52.0054C22.9014 59.5279 20.5872 76.2867 28.6984 88.7161C20.8676 91.2169 16.7042 98.9153 18.8035 106.334C20.8967 113.738 28.6287 118.293 36.2058 116.164C38.4567 115.529 40.2608 114.354 42.3408 113.02C48.1825 125.706 63.6938 132.876 76.4582 126.101L76.4591 126.089Z" fill="white" fill-opacity="0.16"/>
</svg>
