<svg width="743" height="222" viewBox="0 0 743 222" fill="none" xmlns="http://www.w3.org/2000/svg">
<path d="M234.145 0C234.749 0 235.367 0.652676 236.129 0.380732C237.203 -0.00987924 238.133 0.5785 239.153 0.741667C261.68 4.39067 277.167 24.2228 277.197 46.4333L277.232 73.1333C277.252 87.3436 272.269 100.926 261.591 110.424C253.937 117.238 244.289 121.475 233.908 121.51L184.359 121.663C172.895 121.698 162.109 118.014 153.588 110.36C143.524 101.322 137.988 88.3819 138.042 74.7847L138.166 44.0946C138.25 23.1301 155.815 2.20522 177.002 0.682336C192.998 -0.46972 209.04 1.08283 224.908 0H234.14H234.145ZM186.675 102.192C192.227 101.613 197.551 101.035 203.107 100.08C196.977 95.0124 196.18 87.1211 200.564 81.435C204.923 75.7835 213.161 74.8688 218.772 79.1606C224.383 83.4523 225.521 91.4722 220.989 97.6874C226.194 97.371 230.786 96.7381 235.615 96.1002C249.464 94.2708 258.88 81.6031 256.119 67.7834C256.817 67.5263 257.499 67.5263 258.266 67.4274C266.069 66.4088 271.141 59.1257 269.32 51.5359C267.603 44.4011 260.018 39.8868 252.858 42.4184C252.195 29.0091 241.518 18.8433 228.193 19.5454L211.236 21.716C211.974 22.9274 212.993 23.5504 213.775 24.5739C218.05 30.1661 217.357 37.8201 212.186 42.4184C207.12 46.9228 199.302 46.814 194.418 41.9141C189.574 37.0537 189.159 29.6864 193.874 23.9361L178.085 25.9237C164.192 27.6938 156.513 41.0537 159.115 54.3197C151.649 53.756 145.503 58.834 144.741 65.8155C143.979 72.7822 148.952 79.2693 156.077 80.0604C158.195 80.2928 160.12 79.9171 162.331 79.5017C162.93 92.2089 173.578 103.561 186.67 102.202L186.675 102.192Z" fill="white"/>
<path d="M742.019 121.307V122.118L718.254 122.177L683.302 34.7446C679.958 26.3786 671.165 22.077 662.531 23.1202C655.742 23.941 650.038 27.6543 647.069 33.7953L611.721 122.222L587.768 122.078L626.025 26.3935C632.873 9.26095 650.725 -0.835593 669.097 0.845518C685.395 2.3338 698.656 12.7962 704.643 27.7779L742.019 121.307Z" fill="white"/>
<path d="M0 122.202V82.0185C0.286979 81.8058 0.564063 81.4647 0.658074 80.9208C2.1474 72.5597 6.0513 64.9107 12.4539 59.2345C18.1589 54.1714 25.2443 50.6657 32.9581 50.5965L55.7036 50.3987H113.965C120.165 50.4086 124.47 56.1491 124.311 61.7116C124.148 67.4571 119.794 72.4609 113.703 72.4806L35.3529 72.7229C28.3516 72.7427 22.7307 78.9381 22.706 85.6131L22.5674 122.068L0.0049452 122.202H0Z" fill="white"/>
<path d="M0 23.0559V0.657623L113.713 0.682339C117.874 0.682339 121.115 3.10018 122.99 6.57612C124.722 9.78507 124.861 13.8939 122.837 17.3649C121.526 19.6146 118.542 22.8087 114.915 22.8137L0.0049452 23.0559H0Z" fill="white"/>
<path d="M546.194 221.503H537.619C524.873 221.503 514.631 211.11 511.098 198.303C507.941 186.872 510.841 174.476 519.386 166.085C525.932 159.653 534.749 156.651 543.799 157.032C562.235 157.808 575.871 173.304 574.486 191.599C573.664 202.447 568.009 212.103 558.42 217.527C554.556 219.718 550.379 220.553 546.198 221.503H546.194ZM559.622 199.421C563.14 192.672 562.908 184.741 559.187 178.323C555.426 171.846 548.771 168.271 541.458 168.513C534.497 168.746 528.114 172.676 524.774 179.129C521.924 184.632 521.573 190.936 523.636 196.795C526.293 204.346 532.992 209.409 540.731 209.938C548.47 210.467 555.852 206.65 559.622 199.416V199.421Z" fill="white"/>
<path d="M341.726 221.503H332.82C329.48 220.435 326.14 219.658 322.983 217.794C315.368 213.3 310.41 205.631 310.391 196.687L310.292 158.501H322.206L322.355 197.76C323.498 205.507 330.004 210.704 337.807 210.482C345.387 210.264 352.191 204.608 352.225 196.741L352.403 158.55L364.323 158.511L364.155 196.776C364.095 209.671 354.991 218.496 342.938 221.003C342.433 221.107 341.944 221.186 341.721 221.508L341.726 221.503Z" fill="white"/>
<path d="M195.302 221.503H186.727C177.826 219.386 169.84 215.94 167 206.417L178.568 202.976C182.057 210.852 193.145 211.713 199.676 207.535C201.294 206.496 202.007 204.548 202.051 202.917C202.155 199.065 197.454 196.894 194.154 195.861L184.115 192.726C175.317 189.977 168.024 184.934 168.598 174.748C168.994 167.801 172.843 161.863 179.345 159.173C186.792 156.093 195.223 156.399 202.358 160.127C206.697 162.511 209.938 166.016 211.521 170.886L199.978 174.392C198.291 171.272 195.495 169.181 192.007 168.671C187.291 167.668 179.964 170.303 180.597 175.539C181.092 179.604 188.34 181.542 191.843 182.58C200.428 185.131 209.691 186.882 212.941 195.866C216.642 206.101 210.898 216.929 200.473 220.01C198.667 220.544 196.96 220.914 195.302 221.503Z" fill="white"/>
<path d="M559.021 122.177L558.981 29.1624C558.981 25.993 556.646 23.7334 553.899 23.1598C551.416 22.6357 547.645 23.5059 546.824 26.5122L527.255 98.172C524.069 109.841 514.43 118.38 502.812 120.916C485.801 124.625 468.533 114.914 463.917 97.989L444.531 26.8434C443.685 23.7383 440.008 22.5764 437.386 23.1252C434.259 23.7729 432.23 26.2847 432.201 29.7161V122.197L409.95 122.187L409.989 87.6106L410.019 29.0289C410.019 21.0387 413.215 13.7703 418.975 8.4501C430.973 -2.63534 449.667 -1.73547 460.478 10.4921C463.239 13.617 464.946 17.1721 466.074 21.2809L485.786 93.1039C486.929 97.277 491.674 99.3834 495.658 99.3883C499.942 99.3933 504.396 97.0545 505.573 92.7628L525.498 20.1585C528.997 7.40682 542.643 -0.598234 555.611 0.860377C570.059 2.4871 580.574 13.9335 581.301 28.4158L581.276 122.192L559.03 122.182L559.021 122.177Z" fill="white"/>
<path d="M300.037 122.064L278.068 122.177C275.139 95.1262 287.86 68.1888 313.292 56.4062C321.184 52.7523 329.467 50.468 338.2 50.4136L366.383 50.2455C370.411 50.2207 373.879 48.2083 376.497 45.3307C379.777 41.7262 380.396 36.762 377.699 32.4455C374.602 27.4812 368.971 23.3081 362.776 23.2785L322.352 23.0807L288.904 22.9175C284.901 22.8977 281.353 20.6727 279.538 17.6616C277.4 14.1114 277.341 10.0175 279.285 6.43768C281.037 3.2139 284.268 0.702114 288.29 0.69717L368.887 0.687286C389.698 2.85295 404.492 21.2364 401.489 41.8795C399.742 53.8697 392.014 64.0454 380.891 69.3755L401.919 122.073L377.957 122.143L358.18 72.6537L341.644 72.5251C331.184 72.4411 321.204 75.8428 313.441 82.7799C305.138 90.2015 300.304 100.466 300.16 111.631L300.027 122.054L300.037 122.064Z" fill="white"/>
<path d="M445.345 201.394C440.17 212.791 429.368 220.108 416.895 220.128L390.398 220.173L390.384 158.412L418.844 158.614C430.293 158.693 439.927 166.219 444.974 176.286C448.428 184.345 448.616 193.072 445.34 201.394H445.345ZM418.003 208.949C428.191 207.955 435.316 199.184 435.33 189.245C435.345 178.595 427.34 169.962 416.726 169.477C411.917 169.26 407.266 169.27 402.313 169.571L402.214 206.892C402.214 207.545 401.63 208.351 402.12 209.097C407.414 209.122 412.506 209.483 418.003 208.949Z" fill="white"/>
<path d="M266.844 219.911L254.865 220.064L254.85 169.556L234.45 169.265L234.47 158.456L287.121 158.481L287.116 169.309L266.859 169.556L266.844 219.911Z" fill="white"/>
<path d="M484.755 219.911C480.683 220.499 476.794 220.257 472.89 219.985V158.501L484.73 158.476L484.75 219.906L484.755 219.911Z" fill="white"/>
</svg>
