<svg width="743" height="215" viewBox="0 0 743 215" fill="none" xmlns="http://www.w3.org/2000/svg">
<path d="M234.145 0C234.749 0 235.367 0.652676 236.129 0.380732C237.203 -0.00987924 238.133 0.5785 239.153 0.741667C261.68 4.39067 277.167 24.2228 277.197 46.4333L277.232 73.1333C277.252 87.3436 272.269 100.926 261.591 110.424C253.937 117.238 244.289 121.475 233.908 121.51L184.359 121.663C172.895 121.698 162.109 118.014 153.588 110.36C143.524 101.322 137.988 88.3819 138.042 74.7847L138.166 44.0946C138.25 23.1301 155.815 2.20522 177.002 0.682336C192.998 -0.46972 209.04 1.08283 224.908 0H234.14H234.145ZM186.675 102.192C192.227 101.613 197.551 101.035 203.107 100.08C196.977 95.0124 196.18 87.1211 200.564 81.435C204.923 75.7835 213.161 74.8688 218.772 79.1606C224.383 83.4523 225.521 91.4722 220.989 97.6874C226.194 97.371 230.786 96.7381 235.615 96.1002C249.464 94.2708 258.88 81.6031 256.119 67.7834C256.817 67.5263 257.499 67.5263 258.266 67.4274C266.069 66.4088 271.141 59.1257 269.32 51.5359C267.603 44.4011 260.018 39.8868 252.858 42.4184C252.195 29.0091 241.518 18.8433 228.193 19.5454L211.236 21.716C211.974 22.9274 212.993 23.5504 213.775 24.5739C218.05 30.1661 217.357 37.8201 212.186 42.4184C207.12 46.9228 199.302 46.814 194.418 41.9141C189.574 37.0537 189.159 29.6864 193.874 23.9361L178.085 25.9237C164.192 27.6938 156.513 41.0537 159.115 54.3197C151.649 53.756 145.503 58.834 144.741 65.8155C143.979 72.7822 148.952 79.2693 156.077 80.0604C158.195 80.2928 160.12 79.9171 162.331 79.5017C162.93 92.2089 173.578 103.561 186.67 102.202L186.675 102.192Z" fill="white"/>
<path d="M742.019 121.307V122.118L718.254 122.177L683.302 34.7446C679.958 26.3786 671.165 22.077 662.531 23.1202C655.742 23.941 650.038 27.6543 647.069 33.7953L611.721 122.222L587.768 122.078L626.025 26.3935C632.873 9.26095 650.725 -0.835593 669.097 0.845518C685.395 2.3338 698.656 12.7962 704.643 27.7779L742.019 121.307Z" fill="white"/>
<path d="M0 122.202V82.0185C0.286979 81.8058 0.564063 81.4647 0.658074 80.9208C2.1474 72.5597 6.0513 64.9107 12.4539 59.2345C18.1589 54.1714 25.2443 50.6657 32.9581 50.5965L55.7036 50.3987H113.965C120.165 50.4086 124.47 56.1491 124.311 61.7116C124.148 67.4571 119.794 72.4609 113.703 72.4806L35.3529 72.7229C28.3516 72.7427 22.7307 78.9381 22.706 85.6131L22.5674 122.068L0.0049452 122.202H0Z" fill="white"/>
<path d="M0 23.0559V0.657623L113.713 0.682339C117.874 0.682339 121.115 3.10018 122.99 6.57612C124.722 9.78507 124.861 13.8939 122.837 17.3649C121.526 19.6146 118.542 22.8087 114.915 22.8137L0.0049452 23.0559H0Z" fill="white"/>
<path d="M379.194 214.503H370.619C357.873 214.503 347.631 204.11 344.098 191.303C340.941 179.872 343.841 167.476 352.386 159.085C358.932 152.653 367.749 149.651 376.799 150.032C395.235 150.808 408.871 166.304 407.486 184.599C406.664 195.447 401.009 205.103 391.42 210.527C387.556 212.718 383.379 213.553 379.198 214.503H379.194ZM392.622 192.421C396.14 185.672 395.908 177.741 392.187 171.323C388.426 164.846 381.771 161.271 374.458 161.513C367.497 161.746 361.114 165.676 357.774 172.129C354.924 177.632 354.573 183.936 356.636 189.795C359.293 197.346 365.992 202.409 373.731 202.938C381.47 203.467 388.852 199.65 392.622 192.416V192.421Z" fill="white"/>
<path d="M174.726 214.503H165.82C162.48 213.435 159.14 212.658 155.983 210.794C148.368 206.3 143.41 198.631 143.391 189.687L143.292 151.501H155.206L155.355 190.76C156.498 198.507 163.004 203.704 170.807 203.482C178.387 203.264 185.191 197.608 185.225 189.741L185.403 151.55L197.323 151.511L197.155 189.776C197.095 202.671 187.991 211.496 175.938 214.003C175.433 214.107 174.944 214.186 174.721 214.508L174.726 214.503Z" fill="white"/>
<path d="M28.3021 214.503H19.7273C10.826 212.386 2.8401 208.94 0 199.417L11.5682 195.976C15.0565 203.852 26.1448 204.713 32.676 200.535C34.294 199.496 35.0065 197.548 35.051 195.917C35.1549 192.065 30.4544 189.894 27.1542 188.861L17.1148 185.726C8.31745 182.977 1.02422 177.934 1.59818 167.748C1.99401 160.801 5.84349 154.863 12.3451 152.173C19.7917 149.093 28.2229 149.399 35.3578 153.127C39.6971 155.511 42.938 159.016 44.5214 163.886L32.9779 167.392C31.2906 164.272 28.495 162.181 25.0068 161.671C20.2914 160.668 12.9635 163.303 13.5969 168.539C14.0917 172.604 21.3404 174.542 24.8435 175.58C33.4281 178.131 42.6906 179.882 45.9414 188.866C49.6424 199.101 43.8979 209.929 33.4727 213.01C31.6667 213.544 29.9596 213.914 28.3021 214.503Z" fill="white"/>
<path d="M559.021 122.177L558.981 29.1624C558.981 25.993 556.646 23.7334 553.899 23.1598C551.416 22.6357 547.645 23.5059 546.824 26.5122L527.255 98.172C524.069 109.841 514.43 118.38 502.812 120.916C485.801 124.625 468.533 114.914 463.917 97.989L444.531 26.8434C443.685 23.7383 440.008 22.5764 437.386 23.1252C434.259 23.7729 432.23 26.2847 432.201 29.7161V122.197L409.95 122.187L409.989 87.6106L410.019 29.0289C410.019 21.0387 413.215 13.7703 418.975 8.4501C430.973 -2.63534 449.667 -1.73547 460.478 10.4921C463.239 13.617 464.946 17.1721 466.074 21.2809L485.786 93.1039C486.929 97.277 491.674 99.3834 495.658 99.3883C499.942 99.3933 504.396 97.0545 505.573 92.7628L525.498 20.1585C528.997 7.40682 542.643 -0.598234 555.611 0.860377C570.059 2.4871 580.574 13.9335 581.301 28.4158L581.276 122.192L559.03 122.182L559.021 122.177Z" fill="white"/>
<path d="M300.037 122.064L278.068 122.177C275.139 95.1262 287.86 68.1888 313.292 56.4062C321.184 52.7523 329.467 50.468 338.2 50.4136L366.383 50.2455C370.411 50.2207 373.879 48.2083 376.497 45.3307C379.777 41.7262 380.396 36.762 377.699 32.4455C374.602 27.4812 368.971 23.3081 362.776 23.2785L322.352 23.0807L288.904 22.9175C284.901 22.8977 281.353 20.6727 279.538 17.6616C277.4 14.1114 277.341 10.0175 279.285 6.43768C281.037 3.2139 284.268 0.702114 288.29 0.69717L368.887 0.687286C389.698 2.85295 404.492 21.2364 401.489 41.8795C399.742 53.8697 392.014 64.0454 380.891 69.3755L401.919 122.073L377.957 122.143L358.18 72.6537L341.644 72.5251C331.184 72.4411 321.204 75.8428 313.441 82.7799C305.138 90.2015 300.304 100.466 300.16 111.631L300.027 122.054L300.037 122.064Z" fill="white"/>
<path d="M278.345 194.394C273.17 205.791 262.368 213.108 249.895 213.128L223.398 213.173L223.384 151.412L251.844 151.614C263.293 151.693 272.927 159.219 277.974 169.286C281.428 177.345 281.616 186.072 278.34 194.394H278.345ZM251.003 201.949C261.191 200.955 268.316 192.184 268.33 182.245C268.345 171.595 260.34 162.962 249.726 162.477C244.917 162.26 240.266 162.27 235.313 162.571L235.214 199.892C235.214 200.545 234.63 201.351 235.12 202.097C240.414 202.122 245.506 202.483 251.003 201.949Z" fill="white"/>
<path d="M99.844 212.911L87.8651 213.064L87.8503 162.556L67.45 162.265L67.4698 151.456L120.121 151.481L120.116 162.309L99.8589 162.556L99.844 212.911Z" fill="white"/>
<path d="M317.755 212.911C313.683 213.499 309.794 213.257 305.89 212.985V151.501L317.73 151.476L317.75 212.906L317.755 212.911Z" fill="white"/>
</svg>
